<?xml version="1.0" encoding="utf-8"?>
<svg version="1.1" id="Layer_1" xmlns="http://www.w3.org/2000/svg" xmlns:xlink="http://www.w3.org/1999/xlink" x="0px" y="0px"
	 viewBox="0 0 301.8 301.8" style="enable-background:new 0 0 301.8 301.8;" xml:space="preserve">
<style type="text/css">
	.st0{fill:#FFFFFF;}
	.st1{clip-path:url(#SVGID_2_);}
	.st2{enable-background:new    ;}
	.st3{fill:none;stroke:#000000;stroke-linecap:round;}
</style>
<circle class="st0" cx="150.9" cy="150.9" r="150.9"/>
<g>
	<defs>
		<circle id="SVGID_1_" cx="150.9" cy="150.9" r="150.9"/>
	</defs>
	<clipPath id="SVGID_2_">
		<use xlink:href="#SVGID_1_"  style="overflow:visible;"/>
	</clipPath>
	<g class="st1">
		<g transform="translate(-30.59 40.347)">
			<g class="st2">
				<path d="M145.3,82.8c1.1,0.1,1.8,0.3,2.3,0.8c0.5,0.4,0.8,1,0.8,1.7c0,0.6-0.2,1.1-0.5,1.5c-0.3,0.4-0.8,0.7-1.3,0.8
					c-0.5,0.1-1.3,0.2-2.2,0.2h-3.6v-0.3h0.4c0.4,0,0.7,0,0.8-0.2c0.2-0.1,0.2-0.3,0.3-0.5c0-0.2,0.1-0.7,0.1-1.5v-4.5
					c0-0.8,0-1.2-0.1-1.5c0-0.2-0.1-0.4-0.3-0.5c-0.1-0.1-0.4-0.1-0.9-0.1h-0.2v-0.3l1.5,0l1.7-0.1c2.5,0,3.8,0.7,3.8,2.2
					c0,0.6-0.2,1.1-0.7,1.4C146.8,82.4,146.2,82.7,145.3,82.8z M143.6,82.7c0.1,0,0.2,0,0.3,0c1,0,1.7-0.2,2-0.5
					c0.4-0.3,0.5-0.8,0.5-1.5c0-0.5-0.1-0.9-0.2-1.1c-0.1-0.3-0.4-0.5-0.6-0.6c-0.3-0.1-0.8-0.2-1.4-0.2c-0.2,0-0.4,0-0.5,0V82.7z
					 M143.6,83v2.1c0,0.9,0,1.4,0,1.7c0,0.2,0.1,0.4,0.3,0.5c0.1,0.1,0.4,0.2,0.8,0.2c0.7,0,1.3-0.2,1.6-0.6
					c0.4-0.4,0.5-0.9,0.5-1.7c0-0.8-0.2-1.3-0.6-1.7c-0.4-0.4-1.1-0.5-2.2-0.5C144,83,143.8,83,143.6,83z"/>
				<path d="M149.7,83.1c0-1.4,0.5-2.6,1.4-3.4s2.2-1.3,3.6-1.3c1.4,0,2.7,0.4,3.6,1.3c1,0.9,1.5,2,1.5,3.5c0,1.4-0.5,2.6-1.4,3.5
					c-0.9,0.9-2.1,1.3-3.7,1.3c-1.5,0-2.7-0.4-3.6-1.3S149.7,84.6,149.7,83.1z M151.3,83.2c0,1.5,0.3,2.6,0.9,3.4s1.5,1.1,2.7,1.1
					c1,0,1.9-0.4,2.5-1.1c0.6-0.7,0.9-1.9,0.9-3.3c0-1.4-0.3-2.5-0.9-3.3c-0.6-0.8-1.5-1.2-2.6-1.2c-1.1,0-2,0.4-2.6,1.1
					C151.6,80.6,151.3,81.7,151.3,83.2z"/>
				<path d="M169.2,88l-6.6-8.7v6.4c0,0.5,0,0.9,0.1,1.1c0.1,0.2,0.2,0.3,0.4,0.5s0.6,0.2,1.1,0.2v0.3h-3.5v-0.3
					c0.4,0,0.8-0.1,1-0.2c0.2-0.1,0.4-0.3,0.4-0.4c0-0.2,0.1-0.5,0.1-1.1v-4.9c0-0.7,0-1.2-0.1-1.4c-0.1-0.2-0.2-0.4-0.3-0.5
					s-0.5-0.1-1-0.1v-0.3h2.7l5.5,7.3v-5.5c0-0.4,0-0.7-0.1-0.9c-0.1-0.2-0.3-0.3-0.5-0.4s-0.6-0.1-0.9-0.1v-0.3h3.4v0.3
					c-0.4,0-0.7,0.1-0.9,0.2s-0.4,0.3-0.4,0.4c-0.1,0.2-0.1,0.4-0.1,0.8V88H169.2z"/>
				<path d="M179.7,88l-6.6-8.7v6.4c0,0.5,0,0.9,0.1,1.1c0.1,0.2,0.2,0.3,0.4,0.5s0.6,0.2,1.1,0.2v0.3h-3.5v-0.3
					c0.4,0,0.8-0.1,1-0.2c0.2-0.1,0.4-0.3,0.4-0.4c0-0.2,0.1-0.5,0.1-1.1v-4.9c0-0.7,0-1.2-0.1-1.4c-0.1-0.2-0.2-0.4-0.3-0.5
					s-0.5-0.1-1-0.1v-0.3h2.7l5.5,7.3v-5.5c0-0.4,0-0.7-0.1-0.9c-0.1-0.2-0.3-0.3-0.5-0.4s-0.6-0.1-0.9-0.1v-0.3h3.4v0.3
					c-0.4,0-0.7,0.1-0.9,0.2s-0.4,0.3-0.4,0.4c-0.1,0.2-0.1,0.4-0.1,0.8V88H179.7z"/>
				<path d="M181.9,78.9v-0.3h4.2v0.3h-0.2c-0.5,0-0.8,0-0.9,0.1c-0.1,0.1-0.2,0.2-0.3,0.4s-0.1,0.7-0.1,1.5v4.5
					c0,0.7,0,1.2,0.1,1.4c0,0.2,0.1,0.4,0.3,0.5c0.1,0.1,0.4,0.2,0.9,0.2h0.3v0.3h-4.2v-0.3h0.3c0.4,0,0.7,0,0.8-0.2
					c0.2-0.1,0.2-0.3,0.3-0.5c0-0.2,0.1-0.7,0.1-1.5v-4.5c0-0.7,0-1.2-0.1-1.4s-0.1-0.4-0.3-0.4c-0.1-0.1-0.4-0.1-0.9-0.1H181.9z"/>
				<path d="M194.5,84.9h0.3l-0.2,2.9h-7.7v-0.3h0.2c0.5,0,0.8-0.1,0.9-0.2c0.1-0.1,0.2-0.3,0.3-0.5c0-0.2,0.1-0.7,0.1-1.4v-4.5
					c0-0.7,0-1.2-0.1-1.4c0-0.2-0.1-0.4-0.3-0.5c-0.1-0.1-0.4-0.1-0.9-0.1v-0.3h6.6l0.2,2.3h-0.3c-0.1-0.6-0.3-1.1-0.5-1.4
					c-0.2-0.3-0.5-0.4-0.8-0.5c-0.3-0.1-0.8-0.1-1.4-0.1h-1.3v3.9h1c0.5,0,0.8,0,0.9-0.1c0.2-0.1,0.3-0.2,0.4-0.4
					c0.1-0.2,0.1-0.5,0.1-0.9h0.3v3.2H192c0-0.5,0-0.9-0.1-1c-0.1-0.2-0.2-0.3-0.4-0.3c-0.2-0.1-0.4-0.1-0.8-0.1h-1v2.2
					c0,1.1,0.1,1.7,0.2,1.9c0.1,0.2,0.5,0.3,1.1,0.3h0.7c0.5,0,0.9-0.1,1.2-0.2c0.3-0.1,0.6-0.4,0.9-0.8
					C194.1,86.1,194.3,85.6,194.5,84.9z"/>
				<path d="M206.3,78.5l0.1,2.3h-0.3c-0.1-0.5-0.2-0.9-0.4-1.3c-0.2-0.3-0.5-0.5-0.7-0.6c-0.2-0.1-0.6-0.1-1.2-0.1h-1.8v3.9h0.9
					c0.6,0,0.9-0.1,1.1-0.3c0.2-0.2,0.3-0.6,0.3-1.1h0.3v3.3h-0.3c0-0.4,0-0.7-0.1-0.9c-0.1-0.2-0.2-0.4-0.4-0.5
					c-0.2-0.1-0.5-0.1-0.9-0.1h-0.9v2.3c0,0.7,0,1.2,0.1,1.4c0,0.2,0.1,0.4,0.3,0.5c0.1,0.1,0.4,0.2,0.9,0.2h0.3v0.3h-4.3v-0.3h0.3
					c0.4,0,0.7,0,0.8-0.2c0.2-0.1,0.3-0.3,0.3-0.5c0-0.2,0.1-0.7,0.1-1.5v-4.5c0-0.7,0-1.2-0.1-1.4c0-0.2-0.1-0.4-0.3-0.4
					c-0.1-0.1-0.4-0.1-0.9-0.1h-0.2v-0.3H206.3z"/>
				<path d="M207.2,83.1c0-1.4,0.5-2.6,1.4-3.4s2.2-1.3,3.6-1.3c1.4,0,2.7,0.4,3.6,1.3c1,0.9,1.5,2,1.5,3.5c0,1.4-0.5,2.6-1.4,3.5
					c-0.9,0.9-2.1,1.3-3.7,1.3c-1.5,0-2.7-0.4-3.6-1.3S207.2,84.6,207.2,83.1z M208.8,83.2c0,1.5,0.3,2.6,0.9,3.4s1.5,1.1,2.7,1.1
					c1,0,1.9-0.4,2.5-1.1c0.6-0.7,0.9-1.9,0.9-3.3c0-1.4-0.3-2.5-0.9-3.3c-0.6-0.8-1.5-1.2-2.6-1.2c-1.1,0-2,0.4-2.6,1.1
					C209.1,80.6,208.8,81.7,208.8,83.2z"/>
				<path d="M224.5,83.8h4v0.3c-0.4,0-0.7,0-0.9,0.1c-0.2,0.1-0.3,0.2-0.3,0.4c-0.1,0.2-0.1,0.7-0.1,1.5v1c-0.1,0-0.2,0-0.3,0
					c-0.4,0-0.8,0.1-1.4,0.3c-0.8,0.3-1.5,0.4-2.2,0.4c-1.3,0-2.4-0.4-3.3-1.3c-0.9-0.9-1.3-2-1.3-3.3c0-1.3,0.4-2.5,1.3-3.5
					c0.8-1,2-1.5,3.4-1.5c1.2,0,2.3,0.5,3.1,1.4c0.2-0.3,0.2-0.7,0.3-1h0.3v3.1h-0.3c-0.1-1-0.5-1.7-1.1-2.3
					c-0.6-0.6-1.3-0.8-2.1-0.8c-0.9,0-1.6,0.3-2.3,1c-0.6,0.6-1,1.8-1,3.4c0,1.6,0.3,2.8,0.9,3.5c0.6,0.7,1.4,1,2.3,1
					c0.5,0,0.9-0.1,1.3-0.3c0.4-0.2,0.7-0.4,0.8-0.7c0.1-0.3,0.2-0.6,0.2-1.1c0-0.5,0-0.8-0.1-1c-0.1-0.2-0.2-0.3-0.3-0.3
					c-0.1-0.1-0.4-0.1-0.8-0.1h-0.2V83.8z"/>
				<path d="M234.8,84.4h-3.5l-0.2,0.6c-0.4,0.9-0.5,1.4-0.5,1.7c0,0.3,0.1,0.5,0.3,0.6c0.2,0.1,0.4,0.2,0.7,0.2v0.3h-2.8v-0.3
					c0.4-0.1,0.7-0.2,0.9-0.4c0.2-0.2,0.4-0.7,0.7-1.4c0-0.1,0.1-0.3,0.3-0.8l2.7-6.4h0.3l3.1,7.4l0.4,1c0.1,0.2,0.2,0.4,0.4,0.5
					c0.2,0.1,0.4,0.2,0.7,0.2v0.3h-3.6v-0.3c0.4,0,0.7,0,0.9-0.1c0.2-0.1,0.2-0.2,0.2-0.4c0-0.1-0.1-0.4-0.3-0.9L234.8,84.4z
					 M234.7,84.1l-1.6-4l-1.6,4H234.7z"/>
				<path d="M248.4,87.8H246c-0.4-0.3-1.1-1.1-2-2.4c-0.3-0.4-0.6-0.8-0.9-1.2c-0.3-0.4-0.5-0.6-0.6-0.7c-0.1-0.1-0.3-0.1-0.6-0.1
					h-0.4v2.1c0,0.7,0,1.2,0.1,1.4c0,0.2,0.1,0.4,0.3,0.5c0.1,0.1,0.4,0.2,0.9,0.2h0.4v0.3h-4.4v-0.3h0.3c0.4,0,0.7,0,0.8-0.2
					c0.2-0.1,0.2-0.3,0.3-0.5c0-0.2,0.1-0.7,0.1-1.5v-4.5c0-0.7,0-1.2-0.1-1.4s-0.1-0.4-0.3-0.4c-0.1-0.1-0.4-0.1-0.9-0.1h-0.2v-0.3
					l1.3-0.1c0.9,0,1.6-0.1,2.1-0.1c0.9,0,1.6,0.1,2.2,0.2s1,0.4,1.3,0.8s0.5,0.8,0.5,1.3c0,0.6-0.2,1.1-0.7,1.6
					c-0.4,0.4-1.1,0.7-2,0.8c0.4,0.2,1,0.9,1.9,2c0.7,0.9,1.3,1.6,1.7,1.9c0.4,0.3,0.9,0.4,1.4,0.5V87.8z M241.4,83
					c0.3,0,0.7,0,1.1,0c0.4,0,0.7-0.1,1-0.2c0.3-0.1,0.5-0.2,0.7-0.4c0.2-0.2,0.3-0.4,0.4-0.6s0.1-0.6,0.1-0.9
					c0-0.7-0.2-1.2-0.5-1.6c-0.3-0.4-1-0.6-2.1-0.6c-0.2,0-0.4,0-0.6,0V83z"/>
				<path d="M247.7,80.8h-0.3l0-2.2h9l0,2.2h-0.3c-0.1-0.6-0.2-1.1-0.4-1.3c-0.2-0.3-0.4-0.4-0.6-0.5c-0.2-0.1-0.6-0.1-1.1-0.1h-1.5
					v6.5c0,0.7,0,1.2,0.1,1.4s0.1,0.4,0.3,0.5s0.4,0.2,0.8,0.2h0.5v0.3h-4.6v-0.3h0.5c0.4,0,0.7,0,0.8-0.2c0.2-0.1,0.3-0.3,0.3-0.5
					c0-0.2,0.1-0.7,0.1-1.5v-6.5h-1.4c-0.6,0-1,0-1.2,0.1c-0.2,0.1-0.4,0.2-0.6,0.5C248,79.7,247.8,80.2,247.7,80.8z"/>
				<path d="M262.1,83.8l1.8-3.1c0.3-0.5,0.5-0.9,0.5-1.1c0-0.2-0.1-0.4-0.2-0.5c-0.2-0.2-0.4-0.2-0.9-0.2v-0.3h3v0.3
					c-0.4,0.1-0.8,0.2-1,0.5c-0.3,0.3-0.6,0.7-1,1.4l-2.1,3.5v1.2c0,0.8,0,1.3,0.1,1.5c0,0.2,0.2,0.4,0.3,0.5
					c0.2,0.1,0.5,0.1,0.9,0.1v0.3h-4v-0.3h0.2c0.4,0,0.7,0,0.8-0.2c0.2-0.1,0.2-0.3,0.3-0.5c0-0.2,0.1-0.7,0.1-1.5v-1.1l-2.3-3.8
					c-0.5-0.8-0.8-1.2-0.9-1.4c-0.2-0.1-0.4-0.2-0.8-0.2v-0.3h3.8v0.3c-0.7,0-1.1,0.2-1.1,0.5c0,0.1,0.1,0.4,0.3,0.8L262.1,83.8z"/>
			</g>
			<g class="st2">
				<path d="M176.2,213.8h-2.5c-0.4-0.3-1.1-1.1-2-2.4c-0.3-0.4-0.6-0.8-0.9-1.2c-0.3-0.4-0.5-0.6-0.6-0.7c-0.1-0.1-0.3-0.1-0.6-0.1
					h-0.4v2.1c0,0.7,0,1.2,0.1,1.4c0,0.2,0.1,0.4,0.3,0.5s0.4,0.2,0.9,0.2h0.4v0.3h-4.4v-0.3h0.3c0.4,0,0.7,0,0.8-0.2
					s0.2-0.3,0.3-0.5c0-0.2,0.1-0.7,0.1-1.5v-4.5c0-0.7,0-1.2-0.1-1.4s-0.1-0.4-0.3-0.4s-0.4-0.1-0.9-0.1h-0.2v-0.3l1.3-0.1
					c0.9,0,1.6-0.1,2.1-0.1c0.9,0,1.6,0.1,2.2,0.2s1,0.4,1.3,0.8s0.5,0.8,0.5,1.3c0,0.6-0.2,1.1-0.7,1.6s-1.1,0.7-2,0.8
					c0.4,0.2,1,0.9,1.9,2c0.7,0.9,1.3,1.6,1.7,1.9s0.9,0.4,1.4,0.5V213.8z M169.2,209c0.3,0,0.7,0,1.1,0s0.7-0.1,1-0.2
					s0.5-0.2,0.7-0.4c0.2-0.2,0.3-0.4,0.4-0.6s0.1-0.6,0.1-0.9c0-0.7-0.2-1.2-0.5-1.6s-1-0.6-2.1-0.6c-0.2,0-0.4,0-0.6,0V209z"/>
				<path d="M175.7,209.1c0-1.4,0.5-2.6,1.4-3.4s2.2-1.3,3.6-1.3c1.4,0,2.7,0.4,3.6,1.3c1,0.9,1.5,2,1.5,3.5c0,1.4-0.5,2.6-1.4,3.5
					c-0.9,0.9-2.1,1.3-3.7,1.3c-1.5,0-2.7-0.4-3.6-1.3S175.7,210.5,175.7,209.1z M177.3,209.1c0,1.5,0.3,2.6,0.9,3.4
					s1.5,1.1,2.7,1.1c1,0,1.9-0.4,2.5-1.1c0.6-0.7,0.9-1.9,0.9-3.3c0-1.4-0.3-2.5-0.9-3.3c-0.6-0.8-1.5-1.2-2.6-1.2
					c-1.1,0-2,0.4-2.6,1.1C177.6,206.5,177.3,207.6,177.3,209.1z"/>
				<path d="M191.4,208.8c1.1,0.1,1.8,0.3,2.3,0.8c0.5,0.4,0.8,1,0.8,1.7c0,0.6-0.2,1.1-0.5,1.5c-0.3,0.4-0.8,0.7-1.3,0.8
					c-0.5,0.1-1.3,0.2-2.2,0.2h-3.6v-0.3h0.4c0.4,0,0.7,0,0.8-0.2c0.2-0.1,0.2-0.3,0.3-0.5c0-0.2,0.1-0.7,0.1-1.5v-4.5
					c0-0.8,0-1.2-0.1-1.5c0-0.2-0.1-0.4-0.3-0.5c-0.1-0.1-0.4-0.1-0.9-0.1H187v-0.3l1.5,0l1.7-0.1c2.5,0,3.8,0.7,3.8,2.2
					c0,0.6-0.2,1.1-0.7,1.4C192.9,208.4,192.3,208.6,191.4,208.8z M189.7,208.6c0.1,0,0.2,0,0.3,0c1,0,1.7-0.2,2-0.5
					c0.4-0.3,0.5-0.8,0.5-1.5c0-0.5-0.1-0.9-0.2-1.1c-0.1-0.3-0.4-0.5-0.6-0.6c-0.3-0.1-0.8-0.2-1.4-0.2c-0.2,0-0.4,0-0.5,0V208.6z
					 M189.7,209v2.1c0,0.9,0,1.4,0,1.7c0,0.2,0.1,0.4,0.3,0.5c0.1,0.1,0.4,0.2,0.8,0.2c0.7,0,1.3-0.2,1.6-0.6
					c0.4-0.4,0.5-0.9,0.5-1.7c0-0.8-0.2-1.3-0.6-1.7c-0.4-0.4-1.1-0.5-2.2-0.5C190.1,209,189.9,209,189.7,209z"/>
				<path d="M203.1,210.9h0.3l-0.2,2.9h-7.7v-0.3h0.2c0.5,0,0.8-0.1,0.9-0.2c0.1-0.1,0.2-0.3,0.3-0.5c0-0.2,0.1-0.7,0.1-1.4v-4.5
					c0-0.7,0-1.2-0.1-1.4c0-0.2-0.1-0.4-0.3-0.5c-0.1-0.1-0.4-0.1-0.9-0.1v-0.3h6.6l0.2,2.3h-0.3c-0.1-0.6-0.3-1.1-0.5-1.4
					c-0.2-0.3-0.5-0.4-0.8-0.5c-0.3-0.1-0.8-0.1-1.4-0.1h-1.3v3.9h1c0.5,0,0.8,0,0.9-0.1c0.2-0.1,0.3-0.2,0.4-0.4
					c0.1-0.2,0.1-0.5,0.1-0.9h0.3v3.2h-0.3c0-0.5,0-0.9-0.1-1c-0.1-0.2-0.2-0.3-0.4-0.3c-0.2-0.1-0.4-0.1-0.8-0.1h-1v2.2
					c0,1.1,0.1,1.7,0.2,1.9c0.1,0.2,0.5,0.3,1.1,0.3h0.7c0.5,0,0.9-0.1,1.2-0.2c0.3-0.1,0.6-0.4,0.9-0.8
					C202.7,212.1,203,211.6,203.1,210.9z"/>
				<path d="M214.1,213.8h-2.5c-0.4-0.3-1.1-1.1-2-2.4c-0.3-0.4-0.6-0.8-0.9-1.2c-0.3-0.4-0.5-0.6-0.6-0.7c-0.1-0.1-0.3-0.1-0.6-0.1
					h-0.4v2.1c0,0.7,0,1.2,0.1,1.4c0,0.2,0.1,0.4,0.3,0.5c0.1,0.1,0.4,0.2,0.9,0.2h0.4v0.3h-4.4v-0.3h0.3c0.4,0,0.7,0,0.8-0.2
					c0.2-0.1,0.2-0.3,0.3-0.5c0-0.2,0.1-0.7,0.1-1.5v-4.5c0-0.7,0-1.2-0.1-1.4s-0.1-0.4-0.3-0.4c-0.1-0.1-0.4-0.1-0.9-0.1h-0.2v-0.3
					l1.3-0.1c0.9,0,1.6-0.1,2.1-0.1c0.9,0,1.6,0.1,2.2,0.2s1,0.4,1.3,0.8s0.5,0.8,0.5,1.3c0,0.6-0.2,1.1-0.7,1.6
					c-0.4,0.4-1.1,0.7-2,0.8c0.4,0.2,1,0.9,1.9,2c0.7,0.9,1.3,1.6,1.7,1.9c0.4,0.3,0.9,0.4,1.4,0.5V213.8z M207.1,209
					c0.3,0,0.7,0,1.1,0c0.4,0,0.7-0.1,1-0.2c0.3-0.1,0.5-0.2,0.7-0.4c0.2-0.2,0.3-0.4,0.4-0.6s0.1-0.6,0.1-0.9
					c0-0.7-0.2-1.2-0.5-1.6c-0.3-0.4-1-0.6-2.1-0.6c-0.2,0-0.4,0-0.6,0V209z"/>
				<path d="M213.3,206.7H213l0-2.2h9l0,2.2h-0.3c-0.1-0.6-0.2-1.1-0.4-1.3c-0.2-0.3-0.4-0.4-0.6-0.5c-0.2-0.1-0.6-0.1-1.1-0.1h-1.5
					v6.5c0,0.7,0,1.2,0.1,1.4s0.1,0.4,0.3,0.5s0.4,0.2,0.8,0.2h0.5v0.3h-4.6v-0.3h0.5c0.4,0,0.7,0,0.8-0.2c0.2-0.1,0.2-0.3,0.3-0.5
					c0-0.2,0.1-0.7,0.1-1.5v-6.5h-1.4c-0.6,0-1,0-1.2,0.1c-0.2,0.1-0.4,0.2-0.6,0.5C213.6,205.7,213.4,206.1,213.3,206.7z"/>
				<path d="M232.4,212.2l3.4-7.7h2.8v0.3h-0.3c-0.5,0-0.8,0-0.9,0.1c-0.1,0.1-0.2,0.2-0.3,0.4s-0.1,0.7-0.1,1.5v4.5
					c0,0.7,0,1.2,0.1,1.4c0,0.2,0.1,0.4,0.3,0.5c0.1,0.1,0.4,0.2,0.9,0.2h0.4v0.3h-4.4v-0.3h0.3c0.4,0,0.7,0,0.8-0.2
					c0.2-0.1,0.2-0.3,0.3-0.5c0-0.2,0.1-0.7,0.1-1.5v-5.9l-3.7,8.3h-0.3l-3.7-8.3v5.4c0,0.7,0,1.2,0.1,1.5c0,0.3,0.2,0.5,0.4,0.7
					c0.2,0.2,0.6,0.3,1,0.3v0.3h-3.3v-0.3c0.4,0,0.7-0.1,1-0.3c0.2-0.2,0.4-0.4,0.5-0.7s0.1-0.8,0.1-1.6v-4c0-0.7,0-1.2-0.1-1.4
					c0-0.2-0.1-0.4-0.3-0.4c-0.1-0.1-0.4-0.1-0.9-0.1h-0.3v-0.3h2.8L232.4,212.2z"/>
				<path d="M245,210.3h-3.5l-0.2,0.6c-0.4,0.9-0.5,1.4-0.5,1.7c0,0.3,0.1,0.5,0.3,0.6c0.2,0.1,0.4,0.2,0.7,0.2v0.3h-2.8v-0.3
					c0.4-0.1,0.7-0.2,0.9-0.4c0.2-0.2,0.4-0.7,0.7-1.4c0-0.1,0.1-0.3,0.3-0.8l2.7-6.4h0.3l3.1,7.4l0.4,1c0.1,0.2,0.2,0.4,0.4,0.5
					c0.2,0.1,0.4,0.2,0.7,0.2v0.3h-3.6v-0.3c0.4,0,0.7,0,0.9-0.1c0.2-0.1,0.2-0.2,0.2-0.4c0-0.1-0.1-0.4-0.3-0.9L245,210.3z
					 M244.9,210l-1.6-4l-1.6,4H244.9z"/>
				<path d="M254.3,209.8h4v0.3c-0.4,0-0.7,0-0.9,0.1c-0.2,0.1-0.3,0.2-0.3,0.4c0,0.2-0.1,0.7-0.1,1.5v1c-0.1,0-0.2,0-0.3,0
					c-0.4,0-0.8,0.1-1.4,0.3c-0.8,0.3-1.5,0.4-2.2,0.4c-1.3,0-2.4-0.4-3.3-1.3c-0.9-0.9-1.3-2-1.3-3.3c0-1.3,0.4-2.5,1.3-3.5
					c0.8-1,2-1.5,3.4-1.5c1.2,0,2.3,0.5,3.1,1.4c0.2-0.3,0.2-0.7,0.3-1h0.3v3.1h-0.3c-0.1-1-0.5-1.7-1.1-2.3
					c-0.6-0.6-1.3-0.8-2.2-0.8c-0.9,0-1.6,0.3-2.3,1c-0.6,0.6-1,1.8-1,3.4c0,1.6,0.3,2.8,0.9,3.5c0.6,0.7,1.4,1,2.3,1
					c0.5,0,0.9-0.1,1.3-0.3c0.4-0.2,0.7-0.4,0.8-0.7c0.1-0.3,0.2-0.6,0.2-1.1c0-0.5,0-0.8-0.1-1c-0.1-0.2-0.2-0.3-0.3-0.3
					c-0.1-0.1-0.4-0.1-0.8-0.1h-0.2V209.8z"/>
				<path d="M266.7,210.9h0.3l-0.2,2.9h-7.7v-0.3h0.2c0.5,0,0.8-0.1,0.9-0.2c0.1-0.1,0.2-0.3,0.3-0.5c0-0.2,0.1-0.7,0.1-1.4v-4.5
					c0-0.7,0-1.2-0.1-1.4c0-0.2-0.1-0.4-0.3-0.5c-0.1-0.1-0.4-0.1-0.9-0.1v-0.3h6.6l0.2,2.3h-0.3c-0.1-0.6-0.3-1.1-0.5-1.4
					c-0.2-0.3-0.5-0.4-0.8-0.5c-0.3-0.1-0.8-0.1-1.4-0.1h-1.3v3.9h1c0.5,0,0.8,0,0.9-0.1c0.2-0.1,0.3-0.2,0.4-0.4
					c0.1-0.2,0.1-0.5,0.1-0.9h0.3v3.2h-0.3c0-0.5,0-0.9-0.1-1c-0.1-0.2-0.2-0.3-0.4-0.3c-0.2-0.1-0.4-0.1-0.8-0.1h-1v2.2
					c0,1.1,0.1,1.7,0.2,1.9c0.1,0.2,0.5,0.3,1.1,0.3h0.7c0.5,0,0.9-0.1,1.2-0.2c0.3-0.1,0.6-0.4,0.9-0.8
					C266.3,212.1,266.5,211.6,266.7,210.9z"/>
				<path d="M275.4,210.9h0.3l-0.2,2.9h-7.7v-0.3h0.2c0.5,0,0.8-0.1,0.9-0.2c0.1-0.1,0.2-0.3,0.3-0.5c0-0.2,0.1-0.7,0.1-1.4v-4.5
					c0-0.7,0-1.2-0.1-1.4c0-0.2-0.1-0.4-0.3-0.5c-0.1-0.1-0.4-0.1-0.9-0.1v-0.3h6.6l0.2,2.3h-0.3c-0.1-0.6-0.3-1.1-0.5-1.4
					c-0.2-0.3-0.5-0.4-0.8-0.5c-0.3-0.1-0.8-0.1-1.4-0.1h-1.3v3.9h1c0.5,0,0.8,0,0.9-0.1c0.2-0.1,0.3-0.2,0.4-0.4
					c0.1-0.2,0.1-0.5,0.1-0.9h0.3v3.2H273c0-0.5,0-0.9-0.1-1c-0.1-0.2-0.2-0.3-0.4-0.3c-0.2-0.1-0.4-0.1-0.8-0.1h-1v2.2
					c0,1.1,0.1,1.7,0.2,1.9c0.1,0.2,0.5,0.3,1.1,0.3h0.7c0.5,0,0.9-0.1,1.2-0.2c0.3-0.1,0.6-0.4,0.9-0.8
					C275,212.1,275.3,211.6,275.4,210.9z"/>
			</g>
			<path d="M127.4,85.3c-1.3,3.3-7.3,0-9-1c-2.1-1.1-4-2.4-5.9-3.8c-3.7-2.9-6.2-6.9-7.4-11.5c-2.3-8.8-1.1-20.2-5.5-27.3
				c-0.6-1.1-1.1-2.4-2.4-2.3c-1,0.1-1.5,1.8-2,2.5l-5.5,8.2c-4.9,7.5-9.2,14.8-14,22.2c-1.8,2.8-3.5,5.5-5.3,8.3
				c-0.4,0.7-0.6,2.4-1.9,2.3c-1-0.6,0.1-2,0.5-2.9c7.7-13.8,16.2-28,25-40.9c-1-0.5-4-0.9-3.9-2.4c0.4-1.8,4.1-0.7,5.4,0
				c7.6-11.3,16.2-21.6,24-32.6c0-0.1,0.1-0.1,0.1-0.2C104.1,14,79.3,17.4,57.1,21.9c-11,2.3-22,4.5-31.1,9.2
				c-4.2,2.2-8.1,5-11.5,8.3c-3.1,3.1-6.5,7.5-7,12.3c-0.2,3.4,0.4,6.8,2.3,8.2c0.2,0.2,1.1-0.1,1.1,0.4c-1.8,0.7-2.9-0.9-3.3-1.8
				c-0.6-1.4-1-2.8-1.1-4.3c-0.4-3.3,1-6.5,1.9-8.5c2.6-4.8,6.9-8.7,10.5-11.4c4.5-3.2,9.5-5.8,14.7-7.6c5.9-1.9,11.8-3.4,17.9-4.5
				c12.2-2.5,25.5-4.6,37.8-7.5S113,8.2,121.3,2.1c1.1-1,1.8-2.4,3.8-2.1c0,1-1.1,1.4-1.8,2.1c-1.8,2.1-3.3,4.9-4.9,7.4
				c-6.3,9.8-14.2,18.7-20.4,28.6c1.1,1.3,3.1,1.1,4.5,0.9c4.5-0.6,8.7-2.8,11.9-4.4c4.7-2.4,9.1-5.2,13.2-8.5
				c3.8-3.3,7.2-7,10.3-11c2.3-3,4.5-6.1,6.5-9.4l1.1-1.5c0.4-0.4,0.9-1.1,1.5-0.9c0.6,0-0.1,0.5-0.2,0.6c-2.3,4.4-5,8.5-8,12.3
				c-3,3.8-6.3,7.4-10,10.5c-3.9,3.2-8,5.9-12.4,8.2c-4.5,2.4-9.7,4.8-15.9,5c0.5,0.9,1,1.8,1.6,2.6c1.6,3.2,2.7,6.7,3.3,10.2
				c0.7,5,0.9,10.5,1.9,15.7c1.6,8.3,7.5,13.5,14.7,16.9c1.5,0.7,3.3,1.4,4.6,0.7C126.5,85.7,126.6,85.2,127.4,85.3z M94.8,37.6
				c-1-0.5-2.3-1.3-3.8-1c0.2,1.4,2.1,1.4,3.4,1.8C94.5,38.1,95,38.1,94.8,37.6z M137,58c-0.4-2.3,0.7-3.6,1.1-5.5
				c-1,0.7-2,1.8-3.4,2.8c-1.1,0.7-2.8,2.3-4.6,1.9c-2.9-0.6-1.3-5.5-0.1-7.3c1.6-2.5,5.3-5.1,9.5-3.1c1.5,1.1,1.1,1.4,2.4,1.9
				c-0.5,2.3-2.4,4.6-2.9,7.5c-0.2,2,0.7,4.1,2.5,4.5c1.9,0.4,4.4-1.1,5.9-1.9c4.8-2.6,9.8-6.8,14.4-8.3c0.5,0.2-0.6,0.6-0.9,0.7
				c-2.6,1.5-5.4,3-8.2,4.9c-3.3,2.1-6,4.6-9.5,5.5C140.6,62.1,137.9,60.6,137,58L137,58z M133.5,54.8c0.9-0.4,1.7-1,2.5-1.6
				c1.5-1.2,2.8-2.6,3.9-4.1c-0.9-1.3-2.6-1.9-4.1-1.5c-1.7,0.7-3.1,1.9-4,3.4c-1.1,1.5-2.4,4.4-1.1,5.1
				C131.3,56.3,132.5,55.3,133.5,54.8L133.5,54.8z M182.9,67.9c-0.4-3.5,0.1-7.1,1.3-10.4c2.9-8,7-14.2,11-21.1
				c2-3.3,4.3-6.5,6.7-9.5c-1.8-0.7-16.3-4.3-21.7-4.8c-12-1-15.2-0.2-21.8,1.5c-6.8,1.8-12.8,5.4-15.3,10.7
				c-0.1,0.5,0.4,1.1-0.4,1.1c-1.9-0.9-0.1-3.3,0.7-4c3-3.7,7.1-6.4,11.7-7.8c6.5-2.4,16.5-3.3,24.5-2.5c6.9,0.7,22.5,4.5,23.1,4.8
				c0.4,0,10.8-11.7,14.4-15.3c0.8-0.9,1.6-1.7,2.5-2.5c0.9-0.7,1.9-1.8,3.1-1.9c-0.1,1.1-1.1,1.8-2,2.6
				c-5.7,5.5-11.1,11.4-16.1,17.7c21.8,4.1,49.7,7.7,76.8,5.5c12.6-1.1,24.6-3.1,34.5-7c6.9-2.8,13.2-6.8,18.7-11.8
				c2.3-1.9,7-6.4,1.8-8c-0.2-0.1-0.2-0.2-0.1-0.4c2,0.1,3.3,1.1,3.5,2.4c0.4,2.1-2.5,5-4,6.3c-1.8,1.7-3.7,3.2-5.8,4.5
				c-4,3.1-8.5,5.7-13.2,7.6c-19.2,7.8-48.7,9.2-75.7,7c-10.9-0.9-21.8-2.4-32.6-4.4c-1.5-0.2-3.8-1-4.4-0.9
				c-0.9,0.1-1.3,1.4-1.8,2.1c-3.9,5.3-7.4,10.9-10.5,16.7c-1.9,3.3-3.6,6.8-5.1,10.4c-1.7,4-2.5,8.4-2.4,12.7c0,0.5,0.7,1,0,1.1
				C182.9,70.4,182.8,68.7,182.9,67.9L182.9,67.9z M158.8,56.2c0.2-2.6,2.4-5.8,3.8-8c0.7-1.1,1.8-3.3,3.3-2.1
				c0.1,1.1-4.5,7-4.9,11.2c-0.1,1.1,0.1,2.9,0.9,3.3c1.9,1,5.4-0.7,7.5-1.8c4.3-2.1,8.7-4.1,13.2-6c1.8-0.7,3.4-1.3,5.3-1.9
				c0.5-0.2,1.1-0.4,1.6-0.4c-0.9,0.9-2.1,1-3.3,1.4c-5.4,2.1-10.7,4.6-15.8,7.4c-2,1.1-4.4,2.4-6.7,2.6
				C159.7,62.1,158.3,59.8,158.8,56.2L158.8,56.2z M168.9,40.4c0.2,0.5-0.6,1.9-1.6,1.4C165.9,40.6,168,38.9,168.9,40.4L168.9,40.4z
				 M209.9,65.9c-0.1-3.5,1.5-7.7,2.9-10.3c1.4-3.3,3.3-6,4.6-8.5c-6,1.1-13.4,3.8-20,1.8c0.6-0.7,1.8-0.4,2.6-0.2
				c6.5,0.5,12.4-1.9,18.2-3c4.9-7.7,10.4-15,16.5-21.8c6.5-7.4,15.9-15.8,22.3-16.5c2.9-0.5,5.1,1.1,4.8,4.5
				c-0.4,1.9-1.9,4.1-3.1,5.9c-3.6,5.4-8.2,9.8-12.7,14.2c-6.2,5.7-11.2,9.2-20.2,12.3c-1.1,0.5-2.5,0.6-3.3,1.1
				c-1.4,0.9-7.5,12.6-8.8,17.6c-0.7,2.1-1.3,5.8,1,6.4c1.5,0.4,3.8-1,5.3-1.6c4.3-2.5,7.4-5.5,11.4-8.3c4.1-2.9,8.4-5.4,12.9-7.7
				c1.1-0.6,2.2-1.1,3.3-1.6c0.2-0.2,0.4-0.7,1.1-0.6c0,0.9-1.1,1.1-1.8,1.5c-7.8,4-15.6,9.8-22.6,15.1c-2.4,1.8-5.4,4.1-8.7,4.8
				c-2.7,0.3-5.2-1.7-5.5-4.4C209.9,66.4,209.9,66.1,209.9,65.9z M253.7,22.1l3.6-4.9c1.6-2.4,3.8-6.8,2.9-8c-1.4-1.8-5.5-0.2-8.7,2
				c-5,3.6-9.6,7.9-13.4,12.8c-5.3,6.3-10.2,13-14.8,19.8C236.4,39.9,245.7,31.2,253.7,22.1L253.7,22.1z M245.9,56.2
				c0.2-2.6,2.4-5.8,3.8-8c0.7-1.1,1.8-3.3,3.3-2.1c0.1,1.1-4.5,7-4.9,11.2c-0.1,1.1,0.1,2.9,0.9,3.3c1.9,1,5.4-0.7,7.5-1.8
				c4.3-2.1,8.7-4.1,13.2-6c1.8-0.7,3.4-1.3,5.3-1.9c0.5-0.2,1.1-0.4,1.6-0.4c-0.9,0.9-2.1,1-3.3,1.4c-5.4,2.1-10.7,4.6-15.8,7.4
				c-2,1.1-4.4,2.4-6.7,2.6C246.8,62.1,245.4,59.8,245.9,56.2L245.9,56.2z M255.9,40.4c0.2,0.5-0.6,1.9-1.6,1.4
				C252.9,40.6,255,38.9,255.9,40.4z M280.1,58.4c-0.2-2.5,1.8-5.9,0.9-6c-1.1,0-2.1,0.9-3,1.4c-1.9,1.1-3.6,2.5-5.1,4.1
				c-0.6,0.7-1.6,2.3-2.6,1.6c-0.9-1,0.9-2.8,1.5-3.9c2-3,3.6-6.2,6.2-8.9c0.5-0.5,1-1.3,1.8-1c0.6,0.1-1.1,3.1-2.1,4.4
				c-0.8,1.4-1.8,2.8-2.8,4.1c0,0.1-0.1,0.1-0.1,0.2c1.1-0.7,2.3-1.6,3.6-2.5c1.1-0.6,3.6-1.8,4.6-0.5c1.1,1.3-0.2,3.6-0.6,5.3
				c-0.1,2.2,0.7,4.4,2.3,6c5.7,5.7,17.4,5.5,26.8,3.1c8.1-2.2,15.8-5.5,23-9.9c6.7-3.9,12.4-9.3,16.6-15.8c1.2-1.6,2.2-3.3,3-5.1
				c0.8-1.9,1.5-3.9,1.9-5.9c0.7-2.1,1.2-4.2,1.5-6.4c0.4-2.4,1-5.7-0.5-6.5c-0.6-0.5-1.3-0.1-2.4-0.1c0.5-0.9,2.1-0.7,2.8-0.4
				c2.6,1.3,1.3,7.5,0.5,10.3c-1.2,6.4-3.9,12.4-7.8,17.6c-5.1,6.5-11.4,11.5-18.8,15.8c-3.9,2.2-8,4.1-12.2,5.5
				c-7.9,2.9-20.2,5.7-30.1,2C285.4,65.6,280.8,62.6,280.1,58.4L280.1,58.4z"/>
			<path d="M145.9,211c-1.3,3.3-7.3,0-9-1c-2.1-1.1-4-2.4-5.9-3.8c-3.7-2.9-6.2-6.9-7.4-11.5c-2.3-8.8-1.1-20.2-5.5-27.3
				c-0.6-1.1-1.1-2.4-2.4-2.3c-1,0.1-1.5,1.8-2,2.5l-5.5,8.2c-4.9,7.5-9.2,14.8-14,22.2c-1.8,2.8-3.5,5.5-5.3,8.3
				c-0.4,0.7-0.6,2.4-1.9,2.3c-1-0.6,0.1-2,0.5-2.9c7.7-13.8,16.2-28,25-40.9c-1-0.5-4-0.9-3.9-2.4c0.4-1.8,4.1-0.7,5.4,0
				c7.6-11.3,16.2-21.6,24-32.6c0-0.1,0.1-0.1,0.1-0.2c-15.6,9.9-40.4,13.4-62.5,17.9c-11,2.3-22,4.5-31.1,9.2
				c-4.2,2.2-8.1,5-11.5,8.3c-3.1,3.1-6.5,7.5-7,12.3c-0.2,3.4,0.4,6.8,2.3,8.2c0.2,0.2,1.1-0.1,1.1,0.4c-1.8,0.7-2.9-0.9-3.3-1.8
				c-0.6-1.4-1-2.8-1.1-4.3c-0.4-3.3,1-6.5,1.9-8.5c2.6-4.8,6.9-8.7,10.5-11.4c4.5-3.2,9.5-5.8,14.7-7.6c5.9-1.9,11.8-3.4,17.9-4.5
				c12.2-2.5,25.5-4.6,37.8-7.5s23.7-6.7,31.9-12.7c1.1-1,1.8-2.4,3.8-2.1c0,1-1.1,1.4-1.8,2.1c-1.8,2.1-3.3,4.9-4.9,7.4
				c-6.3,9.8-14.2,18.7-20.4,28.6c1.1,1.3,3.1,1.1,4.5,0.9c4.5-0.6,8.7-2.8,11.9-4.4c4.7-2.4,9.1-5.2,13.2-8.5
				c3.8-3.3,7.2-7,10.3-11c2.3-3,4.5-6.1,6.5-9.4l1.1-1.5c0.4-0.4,0.9-1.1,1.5-0.9c0.6,0-0.1,0.5-0.2,0.6c-2.3,4.4-5,8.5-8,12.3
				c-3,3.8-6.3,7.4-10,10.5c-3.9,3.2-8,5.9-12.4,8.2c-4.5,2.4-9.7,4.8-15.9,5c0.5,0.9,1,1.8,1.6,2.6c1.6,3.2,2.7,6.7,3.3,10.2
				c0.7,5,0.9,10.5,1.9,15.7c1.6,8.3,7.5,13.5,14.7,16.9c1.5,0.7,3.3,1.4,4.6,0.7c0-0.3,0.2-0.6,0.5-0.7
				C145.8,211,145.9,211,145.9,211z M113.4,163.3c-1-0.5-2.3-1.3-3.8-1c0.2,1.4,2.1,1.4,3.4,1.8C113,163.8,113.5,163.8,113.4,163.3z
				 M119.4,216.4c-0.2-4.4,2.6-7.9,5.3-10.4c7.8-8,21.1-12.2,32.5-16.9c1.4-3.9,2.4-7.6,4.1-11.3c-2.1,1.5-6.4,5.4-10,5.8
				c-5.4,0.7-3.9-4.4-2.4-7.3c0.7-1.5,1.4-3.5,3.3-3.3c0.4,0.1-0.1,1.5-0.4,2.3c-1,1.8-2.9,6.4-1.5,6.8c1.4,0.5,3.6-0.6,5.3-1.4
				c1.4-0.8,2.6-1.8,3.8-2.9c1.2-1,2.4-2.1,3.4-3.3c0.4-0.6,0.7-1.3,1.1-2c0.2-0.5,0.9-1.5,1.8-1.3c0.6,0.5-0.1,1.5-0.2,2
				c-2,4.5-3.7,9.1-5.1,13.9c1.6-0.5,3.1-1.2,4.5-2.1c1.4-0.9,3-1.5,4.5-2.4c3.5-2.1,7.3-4.1,10.2-7c-0.3,1-1,1.8-1.8,2.4
				c-2.6,2-5.8,3.5-8.7,5.4c-3.1,1.6-6,3.6-9.2,4.9c-2.6,7.8-6.2,15.8-11,21.8c-6.2,7.7-12.3,13.9-18.7,14.2
				C124.3,224.5,119.5,221.5,119.4,216.4z M147.3,209c4.9-6.7,5.5-8.8,9.7-19c-6.3,2.8-15.1,5.4-22.1,9.3c-3.1,1.6-6,3.6-8.5,6
				c-2.6,2.1-5.3,5.3-5.9,8.5c-0.4,1.3-0.4,2.8,0,4.1c1,3.3,4.3,5.5,9.9,5.3C136.3,222.7,143.4,214.2,147.3,209L147.3,209z
				 M174.8,182.4c2.5-5.8,5.8-11.2,9.8-16.2c1.9-2.4,3.5-4.8,5.5-7.4c3.8-4.5,8-9,12.4-13.7c2.2-2.2,4.5-4.3,6.9-6.2
				c2.3-1.8,7-4.1,9.7-4.3c4.9-0.1,2.6,5.8,1.1,8.2c-3.3,6-8.9,11.2-14,15.2c-1.8,1.5-3.4,3-5.5,4.4c-5,3.5-11,7-16.8,10.3
				c-0.5,0.4-1.1,0.5-1.4,0.9c-0.5,0.6-1,1.3-1.3,2.1c-2.2,3.6-4,7.4-5.4,11.3c-1.1,3.6-2.4,9.7,3.9,9.2c3.1-0.2,6.9-2.9,8.9-4.3
				c8-5.1,14.2-12.3,22.5-16.5c0,0.9-1,1.1-1.6,1.4c-7.5,4.8-12.8,10.9-20.4,16.1c-2.9,1.9-8.4,6.2-13.7,3.6
				C170.8,194.5,173.3,186.2,174.8,182.4L174.8,182.4z M186.7,170.4c6.9-4.1,13.7-8,19.5-13.1c5-4,10-8.8,13.1-14.6
				c1.1-1.9,2.6-5.9,1.1-6.8c-2.1-0.6-4.9,1.1-6.7,2.4c-8,5.5-21.7,21.7-30,33.7c0,0.1-0.1,0.2,0,0.2
				C184.6,171.5,185.7,170.9,186.7,170.4L186.7,170.4z M209.2,180.9c-0.4-4,2.6-8.2,5.4-9.4c1.3-0.5,3.3-0.5,3.8,0.6
				c0.5,1.1-0.6,2.8-1.3,3.6c-1.2,1.8-3.2,2.9-5.4,3c-0.6,3.6,1.1,5.5,4.1,5.8c2,0,4.1-0.3,6-0.9c5.4-1.3,9.9-3.6,14.4-5.5
				c3.2-1.4,6.4-2.6,9.8-3.6c4.8-1.5,9.2-2.8,14.9-2.4c2,0,3.9,0.5,5.7,1.3c1.2,0.5,2,1.6,2,2.9c-0.7,0.4-1.1-0.5-1.4-0.7
				c-4.6-4-14.2-2.1-20.4-0.4c-7,2-13.2,5.3-19.7,7.9c-3.3,1.3-7,2.8-11,2.8C212.4,185.8,209.6,183.9,209.2,180.9L209.2,180.9z
				 M215.6,175.5c1-1,1.5-3,1.1-3c-1.2,0.2-2.2,0.8-2.9,1.8c-0.8,0.9-1.5,2-1.8,3.3C213.4,177.2,214.6,176.5,215.6,175.5
				L215.6,175.5z"/>
			<g class="st2">
				<path d="M179.6,110.8v4.6h-1v-1.1c-0.4,0.8-1.3,1.2-2.5,1.2c-1.7,0-2.7-0.9-2.7-2.1c0-1.1,0.7-2.1,2.8-2.1h2.3v-0.4
					c0-1.3-0.7-1.9-2.1-1.9c-1,0-1.8,0.3-2.5,0.9l-0.4-0.7c0.7-0.6,1.8-1,3-1C178.6,107.9,179.6,108.9,179.6,110.8z M178.6,113.1
					v-1.2h-2.3c-1.4,0-1.9,0.6-1.9,1.3c0,0.9,0.7,1.4,1.9,1.4C177.4,114.6,178.3,114.1,178.6,113.1z"/>
				<path d="M189.1,111.1v4.3h-1v-4.2c0-1.6-0.8-2.4-2.2-2.4c-1.6,0-2.6,1-2.6,2.7v3.9h-1V108h1v1.4c0.5-0.9,1.5-1.4,2.8-1.4
					C187.9,107.9,189.1,109,189.1,111.1z"/>
				<path d="M198.6,104.9v10.4h-1v-1.5c-0.6,1-1.6,1.5-2.8,1.5c-2.1,0-3.7-1.5-3.7-3.8c0-2.2,1.6-3.7,3.7-3.7c1.2,0,2.2,0.5,2.8,1.5
					v-4.4H198.6z M197.6,111.7c0-1.7-1.2-2.9-2.7-2.9c-1.6,0-2.7,1.1-2.7,2.9c0,1.7,1.2,2.9,2.7,2.9
					C196.4,114.5,197.6,113.4,197.6,111.7z"/>
			</g>
			<path class="st3" d="M6.1,32.1c0,0-35.1,110.6,63.4,80.1c0,0,6.1-1.8,8.9,0.1"/>
		</g>
	</g>
</g>
</svg>
